<svg width="32" height="41" xmlns="http://www.w3.org/2000/svg" fill="none" viewBox="0 0 32 41">
  <path fill="#FFFAF5" d="M29.3 16v-.1l-.2-.2a9 9 0 0 0-13 0H16a9 9 0 0 0-13 0l-.2.2a9.2 9.2 0 0 0 0 12.5l.2.2 11 11a2.8 2.8 0 0 0 4 0l11.2-11 .2-.2a9.1 9.1 0 0 0 0-12.5Zm-2 10.6v.2l-11.1 11a.2.2 0 0 1-.4 0l-11-11-.2-.2a6.6 6.6 0 0 1 0-9l.1-.1a6.5 6.5 0 0 1 9.3 0l1.8 1.8H16.1l1.8-1.8a6.5 6.5 0 0 1 9.3 0l.2.2a6.5 6.5 0 0 1 0 8.9Z"/>
  <path fill="#FFFAF5" d="m29.3 3.4-.2-.2a9 9 0 0 0-13 0l-.1.1-.1-.1a9.1 9.1 0 0 0-13 0l-.2.2a9.2 9.2 0 0 0 0 12.5l.2.2 11 11a2.8 2.8 0 0 0 4 0l11.2-11 .2-.2a9.1 9.1 0 0 0 0-12.5Zm-2 10.7v.2l-11.1 11a.2.2 0 0 1-.4 0l-11-11-.2-.2a6.6 6.6 0 0 1 0-9h.1A6.5 6.5 0 0 1 14 5l1.8 1.7H16.1L18 5a6.5 6.5 0 0 1 9.3 0l.2.2a6.5 6.5 0 0 1 0 9Z"/>
</svg>
