<svg width="300" height="158" viewBox="0 0 300 158" fill="none" xmlns="http://www.w3.org/2000/svg">
  <path fill="#FFFAF5" d="M18.2 36.1h14.5v34.7h-7.5l-1-7c-1.1 4.4-4.1 7.7-8.7 7.7C4.9 71.5 0 58.5 0 38 0 15.7 5.6 2.6 17.7 2.6c11 0 14.5 9.6 14.5 20.5l-10 1.9c.2-6.3-.2-13-4.8-13C13 12 11 22.2 11 38c0 15.6 1.7 24.2 6.6 24.2 4 0 5.4-5 5.4-13.4v-4.2h-4.7v-8.5Zm34.3 27.6c3.3 0 3.8-4.5 3.7-9.4l9.2 1.3c-.5 9-4.6 15.9-13.1 15.9-10.8 0-15.1-10.9-15.1-26.5 0-14.5 4.5-25.7 15.3-25.7 10 0 13.5 9.6 13.5 20 0 2.6 0 4.6-.5 8.2H47.1c-.2 10 1.3 16.2 5.4 16.2Zm-5.3-22.8h9.3l.1-2.2c0-6-.2-11.6-4.2-11.6s-5.2 6.7-5.2 13.8Zm41.2 19.8 2.1 7.2c-2 2.1-5 3.6-8.6 3.6-6.9 0-10-4.6-10-11.2V27.6h-3.3V20H72v-9.5l10.3-2.1v11.6h7.3v7.7h-7.3v32c0 2.3.8 3.1 2.4 3.1 1.4 0 2.6-.6 3.8-2Zm38-57.5h7.9l5 45h.3l4-45h10l-8.5 67.6h-9.7l-5-42.6h-.4l-4.9 42.6h-9.8l-8.5-67.6h10.3l4 45h.5l4.9-45ZM168 0v27.2a9.2 9.2 0 0 1 9-7.9c6.9 0 9.9 4.4 9.9 12.7v38.8h-10.3v-37c0-4-1.2-6-3.6-6-3 0-5 3.5-5 11v32h-10.4V0H168Zm53.8 45.3c0 15.8-4.4 26.2-15.2 26.2-10.8 0-15.2-10.4-15.2-26.2 0-15.7 4.4-26 15.2-26 10.8 0 15.2 10.4 15.2 26Zm-10.3 0c0-12.6-1-18.3-4.9-18.3-4 0-4.9 5.7-4.9 18.3 0 12.7 1 18.5 5 18.5 3.9 0 4.8-5.7 4.8-18.5Zm-124.7 77h14.5v34.6h-7.5l-1-7c-1.1 4.4-4.1 7.7-8.7 7.7-10.6 0-15.5-13-15.5-33.5 0-22.3 5.6-35.4 17.7-35.4 11 0 14.5 9.6 14.5 20.5l-10 1.9c.2-6.3-.2-13-4.8-13-4.5 0-6.5 10.3-6.5 26 0 15.6 1.7 24.2 6.6 24.2 4 0 5.4-5 5.4-13.4v-4.2h-4.7v-8.5Zm34.3 27.5c3.3 0 3.8-4.5 3.7-9.4l9.3 1.3c-.6 9-4.7 15.9-13.2 15.9-10.8 0-15.1-10.9-15.1-26.5 0-14.5 4.5-25.7 15.3-25.7 10 0 13.5 9.6 13.5 20 0 2.6 0 4.6-.4 8.2h-18.5c-.2 10 1.3 16.2 5.4 16.2Zm-5.3-22.8h9.3l.1-2.2c0-6-.2-11.6-4.2-11.6s-5.2 6.7-5.2 13.8Zm41.2 19.8 2.1 7.2c-2 2.1-5 3.6-8.6 3.6-6.9 0-10-4.6-10-11.2v-32.7H137V106h3.3v-9.5l10.3-2.1V106h7.3v7.7h-7.3v32c0 2.3.8 3.2 2.4 3.2 1.4 0 2.6-.7 3.8-2Zm3.8-5 8.7-1.1c-.5 5.4.9 9.2 4.5 9.2 2.7 0 4.1-2 4.1-5.4 0-8.4-16.7-11.3-16.7-25.4 0-8.4 5.6-13.7 13-13.7 8.3 0 12.6 6 12.4 13.9l-8.5 1.5c.1-4.5-1.1-7.7-4.1-7.7-2.3 0-3.8 1.6-3.8 5 0 7.6 17 11.3 17 25 0 8.9-5.9 14.5-13.3 14.5-9.3 0-13.8-7-13.3-15.8Zm61-24.4h.1l7-28h10.4L226.9 132v25h-10.4v-25L204 89.3h10.6l7 28Zm44.7 14c0 15.8-4.4 26.2-15.2 26.2-10.9 0-15.2-10.4-15.2-26.2 0-15.7 4.3-26 15.2-26 10.8 0 15.2 10.4 15.2 26Zm-10.4 0c0-12.6-.9-18.3-4.8-18.3-4 0-4.9 5.7-4.9 18.3 0 12.7 1 18.5 4.9 18.5 4 0 4.8-5.7 4.8-18.5ZM292 157l-1-9.5c-.8 5.9-4.2 10.2-9.8 10.2-7 0-10.2-5.3-10.2-12.8V106h10.4v36.8c0 3.3.7 6.2 3.5 6.2s4.9-3.5 4.9-10.8V106H300v51h-8.1Z"/>
</svg>
