<svg width="301" height="301" xmlns="http://www.w3.org/2000/svg" fill="none" viewBox="0 0 301 301">
  <g clip-path="url(#a)">
    <path fill="#32825A" d="M281 141c0-1.6-1.3-2.7-2.9-2.5l-53.8 5.3a3 3 0 0 0-2.6 3v.4a3 3 0 0 0 3 2.8h54c1.5 0 2.7-1.3 2.6-2.8l-.3-6.2Z"/>
    <path fill="#77390B" d="M116 84.8a3 3 0 0 0 3.8 1.2l.4-.1a3 3 0 0 0 1.4-3.8L99.9 29.6c-.6-1.4-2.2-2-3.6-1.4L90.4 31c-1.3.6-1.9 2.3-1.2 3.6L116 84.8Z"/>
    <path fill="#006E96" d="M185 216.2a3 3 0 0 0-3.9-1.3l-.3.2a3 3 0 0 0-1.4 3.7l21.7 52.5c.6 1.4 2.2 2 3.6 1.4l5.8-2.8c1.4-.6 2-2.2 1.2-3.6L185 216.2ZM103 207.5c1-1.2 1-3-.2-4l-.3-.2a3 3 0 0 0-4 0l-38.2 38.4c-1 1-1 2.8.1 3.8l4.7 4.2c1 1 2.8.9 3.8-.3l34.2-41.9Z"/>
    <path fill="#77390B" d="M89.1 108.8a3 3 0 0 0 4-.7l.2-.3c.9-1.2.7-3-.5-4l-44-36c-1.1-1-2.8-.8-3.7.4l-4 5.2c-.8 1.3-.5 3 .7 3.8l47.3 31.6Z"/>
    <path fill="#32825A" d="M268.6 118a2.6 2.6 0 0 0-3.3-1.9l-43.7 13.3a3 3 0 0 0-2 3.5l.1.4a3 3 0 0 0 3.4 2.1l44.8-9a2.6 2.6 0 0 0 2-3.2l-1.3-5.2Z"/>
    <path fill="#006E96" d="M171.5 221.6a3 3 0 0 0-3.5-2l-.4.1a3 3 0 0 0-2.1 3.4l10.5 53a2.6 2.6 0 0 0 3.2 2.1l6-1.5a2.6 2.6 0 0 0 2-3.3l-15.7-51.8Z"/>
    <path fill="#32825A" d="M219.2 122.5a3 3 0 0 0-1.6 3.7l.1.3a3 3 0 0 0 3.6 1.8l51.7-15.7c1.5-.4 2.3-2 1.7-3.4l-2-5.9c-.6-1.4-2.2-2.1-3.6-1.5l-50 20.7ZM212.4 109.6a3 3 0 0 0-.9 4l.2.3a3 3 0 0 0 3.9 1l47.7-25.5a2.6 2.6 0 0 0 1-3.7l-3.3-5.3a2.6 2.6 0 0 0-3.7-.9l-44.9 30.1Z"/>
    <path fill="#A91E1E" d="M79.6 128.4a3 3 0 0 0 3.6-1.8l.1-.3a3 3 0 0 0-1.6-3.7l-50-20.7c-1.4-.5-3 .1-3.5 1.6l-2 5.9c-.6 1.4.2 3 1.7 3.4l51.7 15.6Z"/>
    <path fill="#77390B" d="M122.6 81.7a3 3 0 0 0 3.7 1.6h.3a3 3 0 0 0 1.8-3.7L115.2 36c-.5-1.4-2-2.2-3.4-1.7l-5 1.8c-1.5.5-2.2 2.1-1.6 3.5l17.4 42.2Z"/>
    <path fill="#A91E1E" d="M47.5 206.3a2.6 2.6 0 0 0-1 3.7l2.7 4.4a2.6 2.6 0 0 0 3.7.8l35.7-23.9a3 3 0 0 0 .8-4l-.2-.2a3 3 0 0 0-3.8-1.1l-37.9 20.3Z"/>
    <path fill="#32825A" d="M208 103.8a3 3 0 0 0-.4 4l.2.2a3 3 0 0 0 4 .7l44.9-30.1c1.3-.8 1.6-2.5.6-3.8l-3.7-5a2.6 2.6 0 0 0-3.8-.4l-41.7 34.4Z"/>
    <path fill="#A91E1E" d="M92.9 197.2a3 3 0 0 0 .4-4l-.2-.3a3 3 0 0 0-4-.7l-44.8 30.1a2.6 2.6 0 0 0-.7 3.8l3.7 5c1 1.2 2.6 1.4 3.8.4L93 197.2Z"/>
    <path fill="#77390B" d="M103.9 92.8a3 3 0 0 0 4 .5l.2-.3a3 3 0 0 0 .7-4L83.5 51.2a2.6 2.6 0 0 0-3.8-.6l-4.3 3.2a2.6 2.6 0 0 0-.5 3.8l29 35.3Z"/>
    <path fill="#A91E1E" d="M97.7 202.6a3 3 0 0 0 .1-4l-.2-.3a3 3 0 0 0-4-.3l-33.2 27.3a2.6 2.6 0 0 0-.2 3.8l3.4 3.8c1 1.1 2.8 1.2 3.8.1l30.3-30.4Z"/>
    <path fill="#77390B" d="M98.4 97.6a3 3 0 0 0 4 .1l.3-.2a3 3 0 0 0 .3-4L74 58.2a2.6 2.6 0 0 0-3.7-.3l-4 3.6a2.6 2.6 0 0 0-.1 3.8l32.2 32.3ZM93.5 103a3 3 0 0 0 4-.3l.3-.3c1-1.1 1-3-.1-4L65.4 66.1c-1-1-2.8-1-3.8.1l-3.7 4c-1 1.1-.9 2.8.3 3.8l35.3 29Z"/>
    <path fill="#006E96" d="M207.4 198a3 3 0 0 0-4 .2l-.2.3a3 3 0 0 0 0 4l32.4 32.3c1 1 2.8 1 3.8 0l3.6-4c1-1.2.9-3-.3-3.9l-35.3-29Z"/>
    <path fill="#77390B" d="M82.1 121.6A3 3 0 0 0 86 120l.1-.3a3 3 0 0 0-1.2-3.8L44.5 94.5c-1.3-.7-3-.2-3.6 1.2l-2.3 4.9c-.7 1.3 0 3 1.4 3.5L82 121.6ZM143.7 76.6a3 3 0 0 0 3 2.6h.4a3 3 0 0 0 2.8-2.9v-43c0-1.4-1.3-2.6-2.8-2.5l-5 .2a2.6 2.6 0 0 0-2.6 2.9l4.2 42.7Z"/>
    <path fill="#32825A" d="M223.3 136.5a3 3 0 0 0-2.3 3.3v.4a3 3 0 0 0 3.2 2.4l42.7-4.2a2.6 2.6 0 0 0 2.4-3l-.8-5.1a2.6 2.6 0 0 0-3-2.2l-42.2 8.4ZM248.9 109c1.4-.6 2-2.2 1.3-3.6l-1.7-3.7c-.7-1.4-2.3-2-3.7-1.2L216.1 116a3 3 0 0 0-1.2 3.8l.1.4a3 3 0 0 0 3.8 1.4l30-12.5Z"/>
    <path fill="#006E96" d="M191.2 212.5a3 3 0 0 0-4-1l-.2.3a3 3 0 0 0-1 3.8l20.1 37.9a2.6 2.6 0 0 0 3.7 1l4.4-2.6c1.3-.8 1.7-2.5.8-3.8l-23.8-35.6ZM202.5 203.3a3 3 0 0 0-4 0l-.3.2a3 3 0 0 0-.3 4l27.2 33.1c1 1.2 2.7 1.3 3.9.3l3.7-3.4c1.2-1 1.2-2.8.1-3.8l-30.3-30.4Z"/>
    <path fill="#32825A" d="M197.9 93.4a3 3 0 0 0 .3 4l.2.2c1.2 1 3 1 4 0l23-23.1c1.1-1.1 1-2.8 0-3.8l-3.1-2.8c-1.1-1-2.9-.9-3.8.3l-20.6 25.2ZM192 89a3 3 0 0 0 .7 4l.3.2a3 3 0 0 0 4-.5l27.2-33.2c1-1.2.7-2.9-.5-3.8l-4.1-3c-1.2-1-3-.7-3.8.6L192 89Z"/>
    <path fill="#006E96" d="M211.8 192.1a3 3 0 0 0-4 .7l-.1.3a3 3 0 0 0 .5 4l33.1 27.2c1.2 1 2.9.8 3.8-.4l3-4.2c1-1.2.7-2.9-.6-3.7L211.8 192ZM115.1 215.7a3 3 0 0 0-1-3.9l-.3-.2a3 3 0 0 0-4 1l-18 27c-.9 1.3-.5 3 .8 3.8l3.5 2c1.4.8 3 .4 3.7-1l15.3-28.7Z"/>
    <path fill="#32825A" d="M179.3 82a3 3 0 0 0 1.4 3.8l.3.2c1.4.6 3.1 0 3.8-1.3L200.1 56c.8-1.4.2-3-1.2-3.7l-3.7-1.7c-1.3-.7-3 0-3.5 1.4l-12.4 30ZM221.3 172.5a3 3 0 0 0-3.6 1.8v.3a3 3 0 0 0 1.5 3.7l39.7 16.4c1.4.6 3 0 3.5-1.5l1.7-4.9c.5-1.4-.2-3-1.7-3.4l-41-12.4Z"/>
    <path fill="#A91E1E" d="M77.8 135.5a3 3 0 0 0 3.4-2.1v-.4a3 3 0 0 0-1.9-3.5l-41-12.4c-1.5-.5-3 .4-3.4 1.9l-1.2 5c-.4 1.4.5 2.9 2 3.2l42.1 8.3Z"/>
    <path fill="#32825A" d="M224.2 158.2a3 3 0 0 0-3.1 2.5v.3a3 3 0 0 0 2.2 3.3l42.1 8.4c1.5.3 3-.7 3.2-2.2l.7-5.1c.2-1.5-.8-2.9-2.4-3l-42.7-4.2ZM224.6 151a3 3 0 0 0-2.9 2.7v.4a3 3 0 0 0 2.7 3l42.7 4.2c1.5.1 2.8-1 2.8-2.5l.3-5c0-1.6-1.1-2.9-2.7-2.9h-42.9Z"/>
    <path fill="#A91E1E" d="M76.6 157.3a3 3 0 0 0 2.6-3v-.5a3 3 0 0 0-2.9-2.7H43.7a2.6 2.6 0 0 0-2.6 2.7l.2 4.2c0 1.5 1.4 2.6 2.9 2.5l32.4-3.2Z"/>
    <path fill="#77390B" d="M136.6 77.6a3 3 0 0 0 3.2 2.3h.4a3 3 0 0 0 2.5-3.2l-3.2-32.4a2.6 2.6 0 0 0-3-2.4l-4 .6a2.6 2.6 0 0 0-2.3 3.2l6.4 31.9Z"/>
    <path fill="#A91E1E" d="M59.4 174.7a2.6 2.6 0 0 0 3.3 1.9l16.6-5a3 3 0 0 0 2-3.6v-.3a3 3 0 0 0-3.5-2.2l-17 3.4a2.6 2.6 0 0 0-2 3.2l.6 2.6Z"/>
    <path fill="#77390B" d="M129.5 79.3a3 3 0 0 0 3.5 2h.3a3 3 0 0 0 2.2-3.5l-6.4-32a2.6 2.6 0 0 0-3.2-2l-4 1a2.6 2.6 0 0 0-1.9 3.3l9.5 31.2Z"/>
    <path fill="#A91E1E" d="M66 192c.6 1.4 2.2 2 3.5 1.2l15.3-8.2a3 3 0 0 0 1.3-3.8l-.2-.3a3 3 0 0 0-3.7-1.5l-16 6.7c-1.5.6-2 2.2-1.4 3.6l1.1 2.3Z"/>
    <path fill="#77390B" d="M99.7 56.6a2.6 2.6 0 0 0-3.7-1l-3.5 2a2.6 2.6 0 0 0-.8 3.8l18 27a3 3 0 0 0 4 1l.3-.2a3 3 0 0 0 1-4L99.7 56.7Z"/>
    <path fill="#006E96" d="M197 208.2a3 3 0 0 0-4-.5l-.2.2a3 3 0 0 0-.7 4l18.1 27a2.6 2.6 0 0 0 3.8.7l3.3-2.5c1.2-.9 1.4-2.6.4-3.8l-20.6-25.1Z"/>
    <path fill="#32825A" d="M203.2 98.3a3 3 0 0 0 0 4l.2.3a3 3 0 0 0 4 .3l35.2-29c1.2-1 1.3-2.7.3-3.8l-3.6-4a2.6 2.6 0 0 0-3.9-.1l-32.2 32.3Z"/>
    <path fill="#006E96" d="M109 211.9a3 3 0 0 0-.8-4l-.3-.2a3 3 0 0 0-4 .5l-45.8 56c-1 1.2-.7 3 .5 3.9l6.4 4.7c1.3 1 3 .6 3.8-.6l40.1-60.3Z"/>
    <path fill="#32825A" d="M185.8 85.2a3 3 0 0 0 1 4l.4.1a3 3 0 0 0 4-.9l23.7-35.7c.8-1.3.5-3-.9-3.7l-4.3-2.7c-1.3-.8-3-.3-3.7 1l-20.2 38Z"/>
    <path fill="#006E96" d="M121.7 218.8a3 3 0 0 0-1.5-3.7l-.3-.2a3 3 0 0 0-3.8 1.3L96 254.1c-.7 1.3-.1 3 1.3 3.6l4.6 2.2c1.4.7 3 0 3.5-1.4l16.4-39.7ZM218.8 179.3a3 3 0 0 0-3.7 1.5l-.2.3a3 3 0 0 0 1.3 3.8l28.7 15.4c1.3.7 3 .2 3.6-1.2l1.8-3.7c.6-1.4 0-3-1.4-3.6l-30-12.5Z"/>
    <path fill="#A91E1E" d="M76.3 150a3 3 0 0 0 3-2.8v-.3a3 3 0 0 0-2.7-3l-32.4-3.2c-1.5-.2-2.8 1-3 2.5l-.1 4.1c0 1.6 1.1 2.8 2.6 2.8l32.6-.1Z"/>
    <path fill="#006E96" d="M157.2 224.3a3 3 0 0 0-3-2.6h-.4a3 3 0 0 0-2.8 3V242c0 1.5 1.3 2.7 2.8 2.6l2.6-.1c1.5 0 2.6-1.4 2.5-2.9l-1.7-17.3Z"/>
    <path fill="#A91E1E" d="M61.6 164.8a2.6 2.6 0 0 0 3.1 2.2l13-2.6a3 3 0 0 0 2.2-3.3v-.3a3 3 0 0 0-3.2-2.5l-13 1.3a2.6 2.6 0 0 0-2.4 3l.3 2.2Z"/>
    <path fill="#006E96" d="M160.8 221a3 3 0 0 0-2.5 3.2l1.3 13.1a2.6 2.6 0 0 0 3 2.4l2.2-.3a2.6 2.6 0 0 0 2.2-3.1l-2.6-13a3 3 0 0 0-3.3-2.3h-.3Z"/>
    <path fill="#A91E1E" d="M67 176.4c-1.4.5-2.2 2-1.7 3.4l.8 2.1c.5 1.5 2 2.2 3.5 1.6l12.2-5a3 3 0 0 0 1.6-3.8l-.2-.3a3 3 0 0 0-3.5-1.8L67 176.4Z"/>
    <path fill="#006E96" d="M176.3 234c.5 1.4 2 2.1 3.5 1.6l2-.7c1.4-.5 2.1-2 1.6-3.5l-5-12.2a3 3 0 0 0-3.7-1.6l-.4.1a3 3 0 0 0-1.8 3.6l3.8 12.6Z"/>
    <path fill="#77390B" d="M61.4 91.6c-1.3-.8-3-.5-3.7.9L55.6 96c-.8 1.3-.4 3 1 3.7L85.3 115a3 3 0 0 0 3.9-1l.2-.4a3 3 0 0 0-1-3.9l-27-18Z"/>
    <path fill="#006E96" d="M226.9 200.9c1.2.8 3 .4 3.7-.9l1.4-2.2c.7-1.3.3-3-1-3.7l-15.4-8.2a3 3 0 0 0-3.8 1l-.2.4a3 3 0 0 0 .9 4l14.4 9.6Z"/>
    <path fill="#32825A" d="M172.4 79.6a3 3 0 0 0 1.8 3.6l.4.1a3 3 0 0 0 3.6-1.6l20.6-50c.6-1.4 0-3-1.5-3.5l-5.9-2.1c-1.4-.5-3 .3-3.4 1.7l-15.6 51.8Z"/>
    <path fill="#006E96" d="M128.5 221.3a3 3 0 0 0-1.8-3.6h-.3a3 3 0 0 0-3.7 1.6l-12.4 30c-.6 1.5.1 3 1.6 3.6l3.8 1.3c1.4.6 3-.2 3.4-1.7l9.4-31.2Z"/>
    <path fill="#32825A" d="M167.9 81.3a3 3 0 0 0 3.5-2l5-16.6c.4-1.5-.4-3-2-3.4l-2.4-.6c-1.5-.3-3 .6-3.3 2l-3.3 17.1a3 3 0 0 0 2.1 3.4h.4Z"/>
    <path fill="#006E96" d="M133 219.7a3 3 0 0 0-3.4 2l-5 16.6c-.5 1.4.4 3 1.9 3.3l2.5.6c1.5.4 3-.5 3.2-2l3.4-17a3 3 0 0 0-2.2-3.5h-.3Z"/>
    <path fill="#32825A" d="M252.8 180.9c1.5.4 3-.4 3.3-2l1-4c.4-1.4-.5-2.9-2-3.2l-32-6.3a3 3 0 0 0-3.4 2.2v.3a3 3 0 0 0 2 3.5l31.1 9.5ZM161 79.9a3 3 0 0 0 3.3-2.3l3.3-17c.3-1.5-.7-3-2.2-3.2l-2.5-.3c-1.5-.3-2.9.8-3 2.3l-1.7 17.3a3 3 0 0 0 2.5 3.2h.3Z"/>
    <path fill="#006E96" d="M140 221a3 3 0 0 0-3.3 2.3l-2.6 13c-.3 1.5.7 2.9 2.2 3l2.2.4c1.5.2 2.8-.8 3-2.4l1.3-13a3 3 0 0 0-2.5-3.2h-.4Z"/>
    <path fill="#A91E1E" d="M60.6 133.2c-1.5-.3-3 .7-3.1 2.2L57 138c-.2 1.5.8 2.9 2.3 3l17.3 1.7c1.5.2 3-1 3.2-2.4v-.4a3 3 0 0 0-2.3-3.3l-17-3.4Z"/>
    <path fill="#32825A" d="M158.8 59.3c.1-1.5-1-2.8-2.5-2.9h-2.7A2.6 2.6 0 0 0 151 59v17.3a3 3 0 0 0 2.9 2.9h.2a3 3 0 0 0 3-2.6l1.8-17.3Z"/>
    <path fill="#006E96" d="M150.2 224.6a3 3 0 0 0-2.8-2.9h-.5a3 3 0 0 0-3 2.6l-1.7 17.3c-.2 1.5 1 2.8 2.5 2.9l2.6.1c1.5 0 2.7-1.1 2.8-2.6v-17.4Z"/>
  </g>
  <g filter="url(#b)">
    <circle cx="150.5" cy="150.8" r="59.7" fill="#FFFAF5"/>
  </g>
  <circle cx="150.5" cy="150.8" r="54.1" fill="#FFFAF5" stroke="#32825A" stroke-width="2.2"/>
  <path fill="#32825A" d="m144.4 136.6-.1-.2a5.5 5.5 0 0 0-7.8 0v.1h-.1a5.5 5.5 0 0 0-7.8 0h-.1c-2 2.2-2 5.5 0 7.6l.1.1 6.7 6.6a1.7 1.7 0 0 0 2.4 0l6.6-6.6.1-.1a5.5 5.5 0 0 0 0-7.5Zm-1.1 6.4-.1.1-6.6 6.6a.1.1 0 0 1-.2 0l-6.7-6.6v-.1a4 4 0 0 1 0-5.3v-.2a4 4 0 0 1 5.6 0l1 1.1h.2l1.1-1a4 4 0 0 1 5.6 0h.1a4 4 0 0 1 0 5.4Z"/>
  <path fill="#32825A" d="m144.4 129.1-.1-.1c-1-1-2.4-1.7-3.9-1.7-1.4 0-2.8.6-3.9 1.7h-.1a5.5 5.5 0 0 0-7.8 0l-.1.1c-2 2.1-2 5.4 0 7.5l.1.1 6.7 6.7a1.7 1.7 0 0 0 2.4 0l6.6-6.7.1-.1a5.5 5.5 0 0 0 0-7.5Zm-1.1 6.4-.1.1-6.6 6.7a.1.1 0 0 1-.2 0l-6.7-6.7a4 4 0 0 1 0-5.4v-.1a4 4 0 0 1 5.6 0l1 1h.2l1.1-1a4 4 0 0 1 5.6 0h.1a4 4 0 0 1 0 5.4ZM155.7 150c-1.4 0-2.6-.4-3.5-1.4-.8-1-1.4-2.2-1.5-3.8l3.6-1.1c0 .8.1 1.4.3 1.9.3.4.6.7 1.1.7.7 0 1.3-.6 1.6-1.7.4-1.1.6-2.8.6-5.2-.2.8-.6 1.5-1 2-.5.5-1.1.7-1.8.7-1.4 0-2.6-.6-3.4-2-.8-1.3-1.3-3-1.3-5.2s.6-4 1.6-5.4c1-1.4 2.3-2 4-2 1.1 0 2 .2 2.9.8.8.5 1.4 1.4 1.9 2.4l1 3.3c.1 1.3.3 2.6.3 4.1 0 3.9-.6 6.9-1.7 9-1 2-2.7 3-4.7 3Zm.4-18.8c-.5 0-.9.3-1.1.9-.3.6-.4 1.5-.4 2.7a8 8 0 0 0 .4 2.8c.2.6.6 1 1 1 .6 0 1-.4 1.2-1 .2-.6.3-1.5.3-2.8 0-1.2 0-2.1-.3-2.7-.3-.6-.6-1-1.1-1Zm8.6 18.6 4.1-18.4h-2.5v2.5h-3.7v-6.3h10.7v3.3l-4 19h-4.6ZM117.2 169.2c-.8 0-1.5-.2-2.1-.5a3.9 3.9 0 0 1-2-3.5c0-.8.2-1.4.5-2 .4-.6.9-1.1 1.5-1.5a4.3 4.3 0 0 1 3.8-.2c.5.2.9.5 1.2 1l-.7.6c-.6-.6-1.3-.9-2.2-.9-.5 0-1 .1-1.5.4a2.8 2.8 0 0 0-1.5 2.6c0 .6.1 1 .4 1.5.2.5.6.8 1 1 .5.3 1 .5 1.6.5.9 0 1.6-.3 2.2-1l.7.7c-.3.4-.8.7-1.3 1-.5.2-1 .3-1.6.3Zm6.6 0c-.6 0-1-.2-1.5-.4a2.9 2.9 0 0 1-1.5-2.7c0-.5.1-1 .4-1.5.2-.5.6-.8 1-1 .5-.3 1-.5 1.6-.5.6 0 1.1.2 1.6.4.5.3.8.6 1 1a3 3 0 0 1 0 3c-.2.6-.5 1-1 1.3-.5.2-1 .3-1.6.3Zm0-1c.4 0 .7 0 1-.2l.8-.8.2-1c0-.5 0-.8-.2-1.1-.2-.4-.5-.6-.8-.8a2 2 0 0 0-1-.2 1.9 1.9 0 0 0-1.7 1c-.2.3-.3.6-.3 1s.1.8.3 1.1l.7.8 1 .2Zm12-5c.6 0 1.2.2 1.7.6.4.4.6 1 .6 1.9v3.4h-1v-3.3c0-.6-.2-1-.4-1.3-.3-.3-.7-.4-1.2-.4s-1 .2-1.3.5c-.3.3-.4.8-.4 1.4v3h-1.1v-3.2c0-.6-.1-1-.4-1.3-.3-.3-.6-.4-1.1-.4-.6 0-1 .2-1.3.5-.3.3-.5.8-.5 1.4v3h-1v-5.8h1v.9c.2-.3.5-.6.8-.7l1.2-.3c.5 0 .9.1 1.2.3.4.2.7.5.8.8l1-.8a3 3 0 0 1 1.3-.3Zm7.4 0c.6 0 1 0 1.5.3s.8.6 1 1c.3.5.5 1 .5 1.6 0 .6-.2 1.2-.4 1.6-.3.5-.6.8-1 1a3 3 0 0 1-2.8.2l-.9-.7v3h-1v-8h1v1c.2-.4.5-.6.9-.8l1.2-.3Zm-.1 5c.4 0 .7 0 1-.2.3-.2.6-.5.7-.8.2-.3.3-.7.3-1 0-.5-.1-.8-.3-1.1-.1-.4-.4-.6-.7-.8a2 2 0 0 0-1-.2 2 2 0 0 0-1.7 1c-.2.3-.3.6-.3 1s.1.8.3 1.1a1.9 1.9 0 0 0 1.7 1Zm6.6-5c.8 0 1.5.1 1.9.5.4.4.6 1 .6 1.8v3.6h-1v-.8c-.1.3-.4.5-.7.6a3 3 0 0 1-1.2.2c-.7 0-1.2-.1-1.6-.4-.4-.4-.6-.8-.6-1.3s.2-1 .6-1.2c.4-.4 1-.5 1.8-.5h1.7v-.2c0-.5-.2-.8-.4-1-.3-.3-.7-.4-1.2-.4a3 3 0 0 0-1.9.6l-.4-.8c.3-.3.7-.4 1-.6l1.4-.2Zm-.2 5.1c.4 0 .7 0 1-.2l.7-.8v-.8h-1.7c-.9 0-1.3.3-1.3.9 0 .3 0 .5.3.7l1 .2Zm8 .4c-.1.2-.3.3-.6.3l-.7.1c-.6 0-1-.1-1.3-.4-.4-.4-.5-.8-.5-1.4v-3.2h-1v-1h1V162h1v1.3h1.7v.9h-1.7v3.2c0 .3.1.5.3.7.1.2.4.2.6.2.4 0 .7 0 .9-.2l.3.7Zm1.3-5.5h1v5.9h-1v-6Zm.5-1.1-.5-.2a.7.7 0 0 1-.2-.5c0-.2 0-.4.2-.5.2-.2.3-.2.5-.2s.4 0 .5.2c.2.1.3.3.3.5a.7.7 0 0 1-.8.7Zm5.7 1c.6 0 1 .2 1.5.4.5.3.8.6 1.1 1 .3.5.4 1 .4 1.6 0 .6-.1 1.2-.4 1.6-.3.5-.6.8-1 1a3.1 3.1 0 0 1-2.8.2l-.9-.8v1h-1v-8.3h1v3.3c.3-.3.6-.6 1-.7.3-.2.7-.3 1.1-.3Zm0 5.1c.3 0 .6 0 1-.2.2-.2.5-.5.6-.8.2-.3.3-.7.3-1 0-.5 0-.8-.3-1.1-.1-.4-.4-.6-.7-.8a2 2 0 0 0-1-.2 2 2 0 0 0-1 .2c-.3.2-.5.4-.7.8-.2.3-.2.6-.2 1s0 .8.2 1.1a1.9 1.9 0 0 0 1.7 1Zm4.5-5h1v5.9h-1v-6Zm.5-1.1-.5-.2a.7.7 0 0 1-.2-.5c0-.2 0-.4.2-.5.1-.2.3-.2.5-.2s.4 0 .5.2l.2.5a.7.7 0 0 1-.7.7Zm2.6-1.3h1v8.3h-1v-8.3Zm3 2.4h1.1v5.9h-1v-6Zm.6-1.1-.5-.2a.7.7 0 0 1-.2-.5c0-.2 0-.4.2-.5.1-.2.3-.2.5-.2s.4 0 .5.2l.2.5a.7.7 0 0 1-.7.7Zm5.9 6.6-.6.3-.7.1c-.6 0-1-.1-1.4-.4-.3-.4-.5-.8-.5-1.4v-3.2h-1v-1h1V162h1v1.3h1.8v.9H180v3.2c0 .3 0 .5.2.7.2.2.4.2.7.2.3 0 .6 0 .8-.2l.4.7Zm6.3-5.5-2.8 6.5c-.3.6-.6 1-.9 1.2a2 2 0 0 1-1.2.4c-.3 0-.6 0-.9-.2-.2 0-.4-.2-.6-.4l.4-.8c.3.3.7.5 1 .5.3 0 .6 0 .7-.2l.5-.7.2-.4-2.6-6h1.1l2 4.8 2-4.7h1.1Zm-50.2 17c-.6 0-1.1-.1-1.7-.3-.5-.2-1-.4-1.3-.7l.5-.9c.2.3.6.5 1 .7l1.5.2c.7 0 1.1 0 1.5-.3.3-.2.4-.5.4-.9 0-.2 0-.5-.2-.6l-.7-.4-1-.3-1.5-.4-.9-.7a2 2 0 0 1 0-2.3c.2-.3.5-.6 1-.8a4 4 0 0 1 1.6-.3c.5 0 1 0 1.4.2l1.1.5-.4.9-1-.5-1.1-.1c-.6 0-1.1 0-1.4.3a1 1 0 0 0-.5.9c0 .3.1.5.3.6l.6.4 1.1.3 1.4.4 1 .7c.2.3.3.7.3 1.2 0 .4 0 .7-.3 1-.2.4-.6.7-1 .9-.5.2-1 .3-1.7.3Zm7 0c-.6 0-1-.2-1.6-.4a2.9 2.9 0 0 1-1.5-2.7c0-.5.2-1 .4-1.5.3-.5.7-.8 1.1-1a3 3 0 0 1 3 0c.5 0 .8.4 1 .8l-.8.5a1.8 1.8 0 0 0-1.6-.8c-.3 0-.7 0-1 .2-.3.2-.6.4-.7.8-.2.3-.3.6-.3 1s.1.8.3 1.1c.1.3.4.6.7.8a2.1 2.1 0 0 0 2 0l.6-.6.8.5c-.2.4-.5.7-1 1a3 3 0 0 1-1.4.2Zm6.3 0c-.6 0-1.2-.2-1.6-.4a2.9 2.9 0 0 1-1.5-2.7c0-.5.1-1 .4-1.5.2-.5.6-.8 1-1 .5-.3 1-.5 1.7-.5.5 0 1 .2 1.5.4.5.3.8.6 1.1 1 .3.5.4 1 .4 1.6 0 .6-.1 1.1-.4 1.6-.3.4-.6.8-1 1-.5.3-1 .4-1.6.4Zm0-1c.3 0 .7 0 1-.2l.7-.8.2-1c0-.5 0-.8-.2-1.1-.2-.4-.4-.6-.7-.8a2 2 0 0 0-1-.2 1.9 1.9 0 0 0-1.7 1c-.2.3-.3.6-.3 1s0 .8.2 1.1l.7.8 1 .2Zm5.5-4c.2-.4.5-.6.8-.8a3 3 0 0 1 1.3-.3v1h-.2c-.6 0-1 .2-1.4.6-.3.3-.5.8-.5 1.4v3h-1v-6h1v1Zm8.7 2v.3h-4.8c0 .5.3 1 .7 1.2.4.4.9.5 1.4.5.7 0 1.3-.2 1.7-.7l.6.7c-.2.3-.6.5-1 .7-.4.2-.8.2-1.3.2-.6 0-1.2 0-1.6-.3-.5-.3-.9-.7-1.2-1.1-.2-.5-.4-1-.4-1.6 0-.5.2-1 .4-1.5.3-.5.6-.8 1-1a3 3 0 0 1 1.6-.5c.6 0 1 .2 1.5.4.4.3.8.6 1 1 .3.6.4 1 .4 1.7Zm-2.9-2.2a1.9 1.9 0 0 0-1.9 1.7h3.8a1.9 1.9 0 0 0-1.9-1.7Z"/>
  <defs>
    <clipPath id="a">
      <path fill="#fff" d="M26 26h255.4v252.2H26z"/>
    </clipPath>
    <filter id="b" width="229.2" height="229.2" x="35.9" y="36.3" color-interpolation-filters="sRGB" filterUnits="userSpaceOnUse">
      <feFlood flood-opacity="0" result="BackgroundImageFix"/>
      <feColorMatrix in="SourceAlpha" result="hardAlpha" values="0 0 0 0 0 0 0 0 0 0 0 0 0 0 0 0 0 0 127 0"/>
      <feMorphology in="SourceAlpha" operator="dilate" radius="3.9" result="effect1_dropShadow_30_348"/>
      <feOffset/>
      <feGaussianBlur stdDeviation="25.5"/>
      <feComposite in2="hardAlpha" operator="out"/>
      <feColorMatrix values="0 0 0 0 0 0 0 0 0 0 0 0 0 0 0 0 0 0 0.2 0"/>
      <feBlend in2="BackgroundImageFix" result="effect1_dropShadow_30_348"/>
      <feBlend in="SourceGraphic" in2="effect1_dropShadow_30_348" result="shape"/>
    </filter>
  </defs>
</svg>
